<svg width="30" height="30" viewBox="0 0 30 30" fill="none" xmlns="http://www.w3.org/2000/svg">
<path fill-rule="evenodd" clip-rule="evenodd" d="M15.2839 22.4252C19.5826 22.4252 23.0675 18.9403 23.0675 14.6415C23.0675 10.3428 19.5826 6.85791 15.2839 6.85791C10.9851 6.85791 7.50024 10.3428 7.50024 14.6415C7.50024 18.9403 10.9851 22.4252 15.2839 22.4252ZM15.2837 19.1736C17.7867 19.1736 19.8157 17.1445 19.8157 14.6415C19.8157 12.1386 17.7867 10.1095 15.2837 10.1095C12.7807 10.1095 10.7517 12.1386 10.7517 14.6415C10.7517 17.1445 12.7807 19.1736 15.2837 19.1736Z" fill="#0A0E1E"/>
<path fill-rule="evenodd" clip-rule="evenodd" d="M15.2839 29.1762C23.3113 29.1762 29.8187 22.6688 29.8187 14.6415C29.8187 6.61413 23.3113 0.106689 15.2839 0.106689C7.25659 0.106689 0.749146 6.61413 0.749146 14.6415C0.749146 22.6688 7.25659 29.1762 15.2839 29.1762ZM15.2838 25.6806C21.3806 25.6806 26.3229 20.7382 26.3229 14.6415C26.3229 8.54476 21.3806 3.6024 15.2838 3.6024C9.18712 3.6024 4.24476 8.54476 4.24476 14.6415C4.24476 20.7382 9.18712 25.6806 15.2838 25.6806Z" fill="#0A0E1E"/>
</svg>
