<svg width="29" height="27" viewBox="0 0 29 27" fill="none" xmlns="http://www.w3.org/2000/svg">
<path d="M10.0286 26.7546L7.65539 22.7577L3.15886 21.7585L3.59602 17.1371L0.535889 13.6398L3.59602 10.1425L3.15886 5.52104L7.65539 4.52181L10.0286 0.524902L14.2753 2.336L18.522 0.524902L20.8952 4.52181L25.3917 5.52104L24.9545 10.1425L28.0147 13.6398L24.9545 17.1371L25.3917 21.7585L20.8952 22.7577L18.522 26.7546L14.2753 24.9435L10.0286 26.7546ZM11.0902 23.5696L14.2753 22.1957L17.5228 23.5696L19.2714 20.5719L22.7063 19.76L22.394 16.2627L24.7047 13.6398L22.394 10.9543L22.7063 7.45705L19.2714 6.70763L17.4603 3.70994L14.2753 5.08388L11.0278 3.70994L9.27913 6.70763L5.84429 7.45705L6.15655 10.9543L3.84583 13.6398L6.15655 16.2627L5.84429 19.8225L9.27913 20.5719L11.0902 23.5696ZM12.9638 18.0738L20.0208 11.0168L18.2722 9.2057L12.9638 14.5141L10.2784 11.8911L8.52971 13.6398L12.9638 18.0738Z" fill="#0A0E1E"/>
</svg>
