<svg width="20" height="27" viewBox="0 0 20 27" fill="none" xmlns="http://www.w3.org/2000/svg">
<path d="M2.48867 26.7546C1.8017 26.7546 1.21361 26.51 0.724409 26.0208C0.235203 25.5316 -0.00939941 24.9435 -0.00939941 24.2566V11.7662C-0.00939941 11.0792 0.235203 10.4912 0.724409 10.002C1.21361 9.51275 1.8017 9.26815 2.48867 9.26815H3.73771V6.77008C3.73771 5.04225 4.34661 3.56943 5.56442 2.35162C6.78223 1.13381 8.25505 0.524902 9.98288 0.524902C11.7107 0.524902 13.1835 1.13381 14.4013 2.35162C15.6192 3.56943 16.2281 5.04225 16.2281 6.77008V9.26815H17.4771C18.1641 9.26815 18.7521 9.51275 19.2414 10.002C19.7306 10.4912 19.9752 11.0792 19.9752 11.7662V24.2566C19.9752 24.9435 19.7306 25.5316 19.2414 26.0208C18.7521 26.51 18.1641 26.7546 17.4771 26.7546H2.48867ZM2.48867 24.2566H17.4771V11.7662H2.48867V24.2566ZM9.98288 20.5095C10.6699 20.5095 11.2579 20.2649 11.7471 19.7757C12.2363 19.2864 12.481 18.6984 12.481 18.0114C12.481 17.3244 12.2363 16.7363 11.7471 16.2471C11.2579 15.7579 10.6699 15.5133 9.98288 15.5133C9.29591 15.5133 8.70782 15.7579 8.21862 16.2471C7.72941 16.7363 7.48481 17.3244 7.48481 18.0114C7.48481 18.6984 7.72941 19.2864 8.21862 19.7757C8.70782 20.2649 9.29591 20.5095 9.98288 20.5095ZM6.23578 9.26815H13.73V6.77008C13.73 5.72922 13.3657 4.84448 12.6371 4.11588C11.9085 3.38727 11.0237 3.02297 9.98288 3.02297C8.94202 3.02297 8.05729 3.38727 7.32868 4.11588C6.60008 4.84448 6.23578 5.72922 6.23578 6.77008V9.26815Z" fill="#0A0E1E"/>
</svg>
