<svg width="29" height="27" viewBox="0 0 29 27" fill="none" xmlns="http://www.w3.org/2000/svg">
<path d="M0.501953 26.7546V23.9935H12.9266V8.56632C12.3283 8.35924 11.8106 8.03712 11.3735 7.59996C10.9363 7.1628 10.6142 6.64511 10.4071 6.04689H6.024L10.1655 15.7105C10.1655 16.8609 9.69386 17.8388 8.75051 18.6441C7.80716 19.4494 6.66824 19.852 5.33374 19.852C3.99925 19.852 2.86033 19.4494 1.91698 18.6441C0.973628 17.8388 0.501953 16.8609 0.501953 15.7105L4.64349 6.04689H1.88246V3.28586H10.4071C10.6832 2.48057 11.1779 1.81907 11.8912 1.30138C12.6044 0.783687 13.4097 0.524841 14.3071 0.524841C15.2044 0.524841 16.0097 0.783687 16.723 1.30138C17.4362 1.81907 17.9309 2.48057 18.207 3.28586H26.7317V6.04689H23.9706L28.1122 15.7105C28.1122 16.8609 27.6405 17.8388 26.6972 18.6441C25.7538 19.4494 24.6149 19.852 23.2804 19.852C21.9459 19.852 20.807 19.4494 19.8636 18.6441C18.9203 17.8388 18.4486 16.8609 18.4486 15.7105L22.5901 6.04689H18.207C17.9999 6.64511 17.6778 7.1628 17.2407 7.59996C16.8035 8.03712 16.2858 8.35924 15.6876 8.56632V23.9935H28.1122V26.7546H0.501953ZM20.6919 15.7105H25.8689L23.2804 9.70524L20.6919 15.7105ZM2.74528 15.7105H7.9222L5.33374 9.70524L2.74528 15.7105ZM14.3071 6.04689C14.6982 6.04689 15.0261 5.91459 15.2907 5.64999C15.5553 5.38539 15.6876 5.05752 15.6876 4.66638C15.6876 4.27523 15.5553 3.94736 15.2907 3.68276C15.0261 3.41816 14.6982 3.28586 14.3071 3.28586C13.9159 3.28586 13.5881 3.41816 13.3235 3.68276C13.0589 3.94736 12.9266 4.27523 12.9266 4.66638C12.9266 5.05752 13.0589 5.38539 13.3235 5.64999C13.5881 5.91459 13.9159 6.04689 14.3071 6.04689Z" fill="#0A0E1E"/>
</svg>
